<svg width="24" height="24" viewBox="0 0 24 24" fill="none" xmlns="http://www.w3.org/2000/svg">
<path d="M7.99284 21.374C7.60955 21.1174 7.26921 20.8032 6.98479 20.4402C6.67443 20.0642 6.38676 19.6688 6.12259 19.2595C5.50188 18.35 5.01649 17.3553 4.6802 16.307C4.27504 15.0873 4.07812 13.9196 4.07812 12.7771C4.07812 11.5022 4.35364 10.3898 4.89008 9.45592C5.28714 8.7251 5.87868 8.11364 6.59178 7.68408C7.28056 7.25371 8.08279 7.01822 8.89312 7.00198C9.17674 7.00198 9.48466 7.04258 9.8088 7.12378C10.0438 7.18874 10.3274 7.29431 10.6759 7.42423C11.1215 7.59476 11.3646 7.70032 11.4457 7.72468C11.705 7.82212 11.9238 7.86273 12.0939 7.86273C12.2236 7.86273 12.41 7.82212 12.6166 7.75716C12.7341 7.71656 12.9569 7.64348 13.273 7.50543C13.5858 7.39175 13.8337 7.29431 14.0306 7.22122C14.3305 7.1319 14.6206 7.0507 14.8815 7.0101C15.1975 6.96138 15.5111 6.94514 15.8117 6.9695C16.3871 7.0101 16.9138 7.1319 17.3838 7.31055C18.2103 7.64348 18.8772 8.16318 19.3748 8.90212C19.1641 9.03204 18.9696 9.18308 18.7873 9.34873C18.3926 9.69791 18.058 10.112 17.7906 10.5708C17.4421 11.1961 17.2639 11.9026 17.2687 12.6171C17.2809 13.4966 17.5037 14.2696 17.9494 14.9395C18.263 15.4268 18.6819 15.8441 19.1924 16.1868C19.4436 16.3573 19.6641 16.4751 19.8731 16.5522C19.7759 16.8567 19.6689 17.1531 19.5449 17.4454C19.2638 18.1008 18.9291 18.7284 18.532 19.3212C18.182 19.8328 17.9064 20.2145 17.6974 20.4662C17.3716 20.856 17.0572 21.1483 16.7412 21.357C16.3927 21.5884 15.9835 21.711 15.5646 21.711C15.281 21.7232 14.9974 21.6867 14.7267 21.6079C14.4917 21.5308 14.26 21.4439 14.0331 21.3456C13.7956 21.2368 13.5501 21.1442 13.2997 21.0695C12.9918 20.9883 12.6758 20.9493 12.3565 20.9502C12.0323 20.9502 11.7163 20.9908 11.4165 21.0679C11.1653 21.1394 10.9222 21.2271 10.6815 21.3318C10.3412 21.4739 10.1183 21.5673 9.98869 21.6079C9.72614 21.6859 9.45711 21.7329 9.18646 21.75C8.76509 21.75 8.37289 21.6282 7.98231 21.3846L7.99284 21.374ZM13.5469 6.38403C12.9958 6.66012 12.4724 6.77705 11.9481 6.73807C11.867 6.2135 11.9481 5.67431 12.1669 5.08397C12.3613 4.58052 12.6207 4.12578 12.9772 3.71977C13.3499 3.29751 13.7956 2.94834 14.298 2.69661C14.8329 2.42053 15.3434 2.27436 15.8296 2.25C15.8944 2.80218 15.8296 3.34624 15.627 3.93089C15.4422 4.45059 15.1667 4.92969 14.8166 5.36006C14.4642 5.78231 14.0266 6.13149 13.5315 6.38321L13.5469 6.38403Z" fill="#6E7491"/>
</svg>
