<svg width="18" height="18" viewBox="0 0 18 18" fill="none" xmlns="http://www.w3.org/2000/svg">
<g clip-path="url(#clip0_2095_15193)">
<path d="M16.1176 9.1364C16.1176 8.53896 16.0692 8.10299 15.9642 7.65088H9.14209V10.3474H13.1465C13.0658 11.0175 12.6299 12.0267 11.661 12.7049L11.6474 12.7952L13.8045 14.4662L13.9539 14.4811C15.3264 13.2135 16.1176 11.3485 16.1176 9.1364Z" fill="#4285F4"/>
<path d="M9.14203 16.2411C11.1039 16.2411 12.7509 15.5952 13.9539 14.4811L11.661 12.7048C11.0474 13.1327 10.2239 13.4315 9.14203 13.4315C7.22054 13.4315 5.58969 12.1639 5.00834 10.412L4.92313 10.4192L2.68021 12.155L2.65088 12.2366C3.84575 14.6102 6.30012 16.2411 9.14203 16.2411Z" fill="#34A853"/>
<path d="M5.00848 10.412C4.85509 9.95993 4.76631 9.47548 4.76631 8.97494C4.76631 8.47435 4.85509 7.98996 5.00041 7.53785L4.99635 7.44156L2.72532 5.67786L2.65102 5.7132C2.15855 6.69818 1.87598 7.80428 1.87598 8.97494C1.87598 10.1456 2.15855 11.2516 2.65102 12.2366L5.00848 10.412Z" fill="#FBBC05"/>
<path d="M9.14203 4.51832C10.5064 4.51832 11.4268 5.10768 11.9516 5.6002L14.0023 3.59795C12.7428 2.42729 11.1039 1.70874 9.14203 1.70874C6.30012 1.70874 3.84575 3.33958 2.65088 5.71319L5.00027 7.53784C5.58969 5.78588 7.22054 4.51832 9.14203 4.51832Z" fill="#EB4335"/>
</g>
<defs>
<clipPath id="clip0_2095_15193">
<rect width="14.25" height="14.5825" fill="white" transform="translate(1.875 1.70874)"/>
</clipPath>
</defs>
</svg>
