<svg width="24" height="24" viewBox="0 0 24 24" fill="none" xmlns="http://www.w3.org/2000/svg">
<g clip-path="url(#clip0_937_14)">
<path d="M21.49 12.1819C21.49 11.3853 21.4253 10.804 21.2854 10.2012H12.1892V13.7966H17.5285C17.4209 14.6901 16.8396 16.0357 15.5478 16.9399L15.5297 17.0602L18.4058 19.2883L18.605 19.3082C20.435 17.6181 21.49 15.1314 21.49 12.1819" fill="#4285F4"/>
<path d="M12.1892 21.6549C14.805 21.6549 17.001 20.7937 18.605 19.3082L15.5478 16.9399C14.7297 17.5104 13.6317 17.9087 12.1892 17.9087C9.62725 17.9087 7.45279 16.2187 6.67766 13.8828L6.56404 13.8924L3.57348 16.2068L3.53437 16.3155C5.12753 19.4803 8.40002 21.6549 12.1892 21.6549Z" fill="#34A853"/>
<path d="M6.67765 13.8827C6.47313 13.2799 6.35476 12.634 6.35476 11.9666C6.35476 11.2992 6.47313 10.6533 6.66689 10.0505L6.66147 9.9221L3.63344 7.5705L3.53437 7.61762C2.87775 8.93093 2.50098 10.4057 2.50098 11.9666C2.50098 13.5275 2.87775 15.0022 3.53437 16.3155L6.67765 13.8827" fill="#FBBC05"/>
<path d="M12.1892 6.02445C14.0085 6.02445 15.2356 6.81027 15.9353 7.46697L18.6696 4.7973C16.9903 3.23642 14.805 2.27835 12.1892 2.27835C8.40002 2.27835 5.12753 4.45281 3.53437 7.61762L6.6669 10.0505C7.45279 7.71454 9.62725 6.02445 12.1892 6.02445" fill="#EB4335"/>
</g>
<g clip-path="url(#clip1_937_14)">
<path d="M21.49 12.1819C21.49 11.3853 21.4253 10.804 21.2854 10.2012H12.1892V13.7966H17.5285C17.4209 14.6901 16.8396 16.0357 15.5478 16.9399L15.5297 17.0602L18.4058 19.2883L18.605 19.3082C20.435 17.6181 21.49 15.1314 21.49 12.1819" fill="#6E7491"/>
<path d="M12.1892 21.6549C14.805 21.6549 17.001 20.7937 18.605 19.3082L15.5478 16.9399C14.7297 17.5104 13.6317 17.9087 12.1892 17.9087C9.62725 17.9087 7.45279 16.2187 6.67766 13.8828L6.56404 13.8924L3.57348 16.2068L3.53437 16.3155C5.12753 19.4803 8.40002 21.6549 12.1892 21.6549Z" fill="#6E7491"/>
<path d="M6.67765 13.8827C6.47313 13.2799 6.35476 12.634 6.35476 11.9666C6.35476 11.2992 6.47313 10.6533 6.66689 10.0505L6.66147 9.9221L3.63344 7.5705L3.53437 7.61762C2.87775 8.93093 2.50098 10.4057 2.50098 11.9666C2.50098 13.5275 2.87775 15.0022 3.53437 16.3155L6.67765 13.8827" fill="#6E7491"/>
<path d="M12.1892 6.02445C14.0085 6.02445 15.2356 6.81027 15.9353 7.46697L18.6696 4.7973C16.9903 3.23642 14.805 2.27835 12.1892 2.27835C8.40002 2.27835 5.12753 4.45281 3.53437 7.61762L6.6669 10.0505C7.45279 7.71454 9.62725 6.02445 12.1892 6.02445" fill="#6E7491"/>
</g>
<defs>
<clipPath id="clip0_937_14">
<rect width="19" height="19.4433" fill="white" transform="translate(2.5 2.27835)"/>
</clipPath>
<clipPath id="clip1_937_14">
<rect width="19" height="19.4433" fill="white" transform="translate(2.5 2.27835)"/>
</clipPath>
</defs>
</svg>
